<svg width="496" height="496" xmlns="http://www.w3.org/2000/svg" class="svg-inline--fa fa-github fa-w-16">

 <g>
  <title>background</title>
  <rect fill="none" id="canvas_background" height="402" width="582" y="-1" x="-1"/>
 </g>
 <g>
  <title>Layer 1</title>
  <path id="svg_1" d="m165.899994,397.399994c0,2 -2.300003,3.600006 -5.199997,3.600006c-3.300003,0.299988 -5.600006,-1.300018 -5.600006,-3.600006c0,-2 2.300003,-3.600006 5.199997,-3.600006c3,-0.299988 5.600006,1.299988 5.600006,3.600006zm-31.100006,-4.5c-0.699997,2 1.300003,4.299988 4.300003,4.899994c2.600006,1 5.600006,0 6.199997,-2s-1.300003,-4.299988 -4.300003,-5.200012c-2.599991,-0.699982 -5.5,0.300018 -6.199997,2.300018zm44.199997,-1.700012c-2.899994,0.700012 -4.899994,2.600006 -4.599991,4.899994c0.300003,2 2.899994,3.300018 5.899994,2.600006c2.900009,-0.699982 4.900009,-2.600006 4.600006,-4.600006c-0.300003,-1.899994 -3,-3.199982 -5.900009,-2.899994zm65.800018,-383.199982c-138.700005,0 -244.800003,105.300003 -244.800003,244c0,110.899994 69.800003,205.799988 169.5,239.200012c12.800003,2.299988 17.300003,-5.600006 17.300003,-12.100006c0,-6.200012 -0.300003,-40.399994 -0.300003,-61.399994c0,0 -70,15 -84.699997,-29.800018c0,0 -11.400002,-29.100006 -27.800003,-36.600006c0,0 -22.900002,-15.699982 1.599998,-15.399994c0,0 24.900002,2 38.599998,25.800018c21.900009,38.599976 58.600006,27.5 72.900009,20.899994c2.299988,-16 8.799988,-27.100006 16,-33.700012c-55.900009,-6.199982 -112.300003,-14.299988 -112.300003,-110.5c0,-27.5 7.599998,-41.299988 23.599998,-58.900009c-2.599998,-6.5 -11.099998,-33.299988 2.599998,-67.899994c20.899994,-6.5 69,27 69,27c20,-5.600006 41.5,-8.5 62.800003,-8.5s42.800003,2.899994 62.800003,8.5c0,0 48.100006,-33.599998 69,-27c13.699982,34.699997 5.199982,61.399994 2.600006,67.899994c16,17.700012 25.799988,31.5 25.799988,58.900009c0,96.5 -58.899994,104.199982 -114.800018,110.5c9.200012,7.899994 17,22.899994 17,46.399994c0,33.700012 -0.299988,75.400024 -0.299988,83.600006c0,6.5 4.600006,14.399994 17.299988,12.100006c100.000031,-33.200012 167.800018,-128.100006 167.800018,-239c0,-138.699997 -112.5,-244 -251.199997,-244zm-213.400013,728.099976c-1.299999,1 -1,3.299988 0.700001,5.200012c1.599998,1.599976 3.899998,2.299988 5.200001,1c1.299999,-1 1,-3.299988 -0.700001,-5.200012c-1.600002,-1.599976 -3.900002,-2.299988 -5.200001,-1zm136.800007,-353c-0.700012,1.300018 0.299988,2.900024 2.299988,3.900024c1.600006,1 3.600006,0.699982 4.300003,-0.700012c0.699997,-1.299988 -0.300003,-2.899994 -2.300003,-3.899994c-2,-0.600006 -3.599991,-0.300018 -4.299988,0.699982zm32.400009,35.600006c-1.600006,1.300018 -1,4.300018 1.299988,6.200012c2.300003,2.299988 5.200012,2.600006 6.5,1c1.300003,-1.300018 0.700012,-4.300018 -1.299988,-6.200012c-2.200012,-2.299988 -5.200012,-2.600006 -6.5,-1zm-11.400009,-14.699982c-1.599991,1 -1.599991,3.599976 0,5.899994c1.600006,2.299988 4.300003,3.299988 5.600006,2.299988c1.599991,-1.299988 1.599991,-3.899994 0,-6.199982c-1.400009,-2.300018 -4,-3.300018 -5.600006,-2z" fill="#4949e7"/>
 </g>
</svg>