<?xml version="1.0"?>
<svg width="972" height="737.01423" xmlns="http://www.w3.org/2000/svg" xmlns:svg="http://www.w3.org/2000/svg" xmlns:se="http://svg-edit.googlecode.com" data-name="Layer 1">
 <title>master_plan</title>
 <g class="layer">
  <title>Layer 1</title>
  <rect fill="#3f3d56" height="619" id="svg_1" width="972"/>
  <circle cx="88" cy="103" fill="#f2f2f2" id="svg_2" r="14"/>
  <circle cx="427" cy="54" fill="#f2f2f2" id="svg_3" r="14"/>
  <circle cx="418" cy="276" fill="#f2f2f2" id="svg_4" r="25"/>
  <circle cx="333" cy="62" fill="#ff6584" id="svg_5" r="6"/>
  <circle cx="63" cy="303" fill="#ff6584" id="svg_6" r="6"/>
  <circle cx="894" cy="316" fill="#ff6584" id="svg_7" r="6"/>
  <circle cx="240" cy="196" fill="#f2f2f2" id="svg_8" r="6"/>
  <circle cx="900" cy="62" fill="#f2f2f2" id="svg_9" r="6"/>
  <circle cx="88" cy="487" fill="#f2f2f2" id="svg_10" r="6"/>
  <circle cx="810" cy="429" fill="#f2f2f2" id="svg_11" r="6"/>
  <circle cx="636" cy="56" fill="#f2f2f2" id="svg_12" r="6"/>
  <path d="m843,250.49288a15,15 0 1 1 15,-15a15.01672,15.01672 0 0 1 -15,15zm0,-28a13,13 0 1 0 13,13a13.01474,13.01474 0 0 0 -13,-13z" fill="#f2f2f2" id="svg_13" transform="translate(-114 -81.49288)"/>
  <path d="m815,288.49288a11,11 0 1 1 11,-11a11.01245,11.01245 0 0 1 -11,11zm0,-20a9,9 0 1 0 9,9a9.01016,9.01016 0 0 0 -9,-9z" fill="#f2f2f2" id="svg_14" transform="translate(-114 -81.49288)"/>
  <path d="m877,341.49288a11,11 0 1 1 11,-11a11.01245,11.01245 0 0 1 -11,11zm0,-20a9,9 0 1 0 9,9a9.01016,9.01016 0 0 0 -9,-9z" fill="#f2f2f2" id="svg_15" transform="translate(-114 -81.49288)"/>
  <path d="m857,356.49288a82,82 0 1 1 82,-82a82.093,82.093 0 0 1 -82,82zm0,-162a80,80 0 1 0 80,80a80.09041,80.09041 0 0 0 -80,-80z" fill="#f2f2f2" id="svg_16" transform="translate(-114 -81.49288)"/>
  <path d="m857,307.49288c-68.41113,0 -122,-14.49511 -122,-33c0,-10.78271 15.90527,-20.04834 44.78613,-26.09033l0.41016,1.958c-27.45215,5.74269 -43.19629,14.53858 -43.19629,24.13233c0,16.80372 54.95313,31 120,31s120,-14.19628 120,-31c0,-9.61181 -15.79785,-18.41894 -43.34277,-24.16308l0.4082,-1.958c28.97657,6.04296 44.93457,15.31933 44.93457,26.12108c0,18.50489 -53.58887,33 -122,33z" fill="#f2f2f2" id="svg_17" transform="translate(-114 -81.49288)"/>
  <path d="m795.441,624.70922c-2.77441,0 -5.57715,-0.04394 -8.32812,-0.12988l0.0625,-1.99805c3.95019,0.12305 7.98144,0.15723 11.95019,0.10254l0.02735,2q-1.85305,0.0249 -3.71192,0.02539zm15.74512,-0.46387l-0.11719,-1.99609c3.95606,-0.2334 7.96289,-0.56152 11.90918,-0.97461l0.209,1.98828c-3.97659,0.41699 -8.0137,0.74807 -12.001,0.98242l0.00001,0zm-36.0957,-0.31152c-3.98926,-0.30566 -8.02051,-0.706 -11.98243,-1.19238l0.24414,-1.98438c3.93164,0.48145 7.93164,0.87989 11.89063,1.18262l-0.15234,1.99414zm60.03906,-2.19922l-0.29981,-1.97656c3.93067,-0.59668 7.8916,-1.28906 11.76953,-2.05957l0.38965,1.96094c-3.90821,0.77636 -7.89844,1.47458 -11.85938,2.07519l0.00001,0zm-83.93506,-0.73144c-3.94092,-0.668 -7.91895,-1.43555 -11.82324,-2.28321l0.42431,-1.95507c3.87452,0.84179 7.82178,1.60351 11.73291,2.26562l-0.33398,1.97266zm107.54834,-3.96192l-0.48047,-1.9414c3.8584,-0.95411 7.73828,-2.00879 11.53223,-3.13379l0.56836,1.918c-3.82326,1.13376 -7.73244,2.19626 -11.62013,3.15719l0.00001,0zm-131.07617,-1.14648c-3.86573,-1.02832 -7.75586,-2.15918 -11.5625,-3.36328l0.60254,-1.90625c3.77783,1.19433 7.63818,2.3164 11.47363,3.33593l-0.51367,1.9336zm154.1582,-5.70117l-0.65625,-1.88868c3.74414,-1.30175 7.50977,-2.709 11.19434,-4.18359l0.74218,1.85742c-3.71192,1.48535 -7.50684,2.90332 -11.28028,4.21485l0.00001,0zm-177.14551,-1.56641c-3.75439,-1.37988 -7.53222,-2.86914 -11.22754,-4.42578l0.77637,-1.84375c3.667,1.54492 7.41553,3.02246 11.1416,4.39258l-0.69043,1.87695zm199.4746,-7.36819l-0.82812,-1.82032c3.5957,-1.63379 7.21,-3.37793 10.74218,-5.18359l0.91016,1.78125c-3.55957,1.81937 -7.20117,3.5762 -10.82422,5.22266zm-221.71045,-1.99414c-3.60888,-1.71973 -7.23144,-3.54883 -10.76562,-5.4375l0.94238,-1.76368c3.50781,1.874 7.10205,3.68946 10.68359,5.39649l-0.86035,1.80469zm243.10889,-8.94434l-0.99023,-1.73633c3.44824,-1.96777 6.89062,-4.03613 10.22949,-6.14844l1.06836,1.68946c-3.36426,2.12893 -6.83203,4.21389 -10.30762,6.19534l0,-0.00003zm-264.376,-2.418c-3.43261,-2.042 -6.87011,-4.19531 -10.21631,-6.39941l1.10059,-1.66993c3.32031,2.1875 6.73145,4.32422 10.13818,6.35059l-1.02246,1.71875zm284.69922,-10.43945l-1.14453,-1.63867c3.24707,-2.26856 6.48731,-4.64454 9.63086,-7.06055l1.21875,1.58594c-3.16697,2.43463 -6.43262,4.82821 -9.70506,7.11334l-0.00002,-0.00006zm-304.82568,-2.81641c-3.228,-2.34473 -6.45264,-4.80078 -9.585,-7.30176l1.248,-1.5625c3.1084,2.48145 6.3086,4.91895 9.51172,7.24512l-1.17472,1.61914zm323.90285,-11.84566l-1.28906,-1.5293c3.02636,-2.55371 6.03808,-5.21484 8.95312,-7.91015l1.35742,1.46875c-2.93652,2.71584 -5.97168,5.39748 -9.02148,7.9707zm-342.728,-3.18555c-3.00634,-2.63281 -5.99316,-5.37109 -8.877,-8.13965l1.38477,-1.44336c2.8623,2.74805 5.82617,5.46582 8.80957,8.07911l-1.31734,1.5039zm360.40088,-13.16113l-1.42383,-1.4043c2.79,-2.82715 5.54981,-5.75293 8.20118,-8.69531l1.48632,1.33789c-2.6719,2.96584 -5.45217,5.91311 -8.2637,8.76174l0.00003,-0.00002zm-377.77295,-3.51172c-2.7583,-2.90039 -5.48242,-5.89844 -8.09668,-8.91016l1.51075,-1.31054c2.59423,2.98925 5.29736,5.96386 8.03515,8.84179l-1.44922,1.37891zm393.89307,-14.37988l-1.54492,-1.26953c2.5205,-3.06739 5.002,-6.23243 7.37793,-9.40918l1.60156,1.19726c-2.39359,3.20119 -4.89456,6.39162 -7.4346,9.48147l0.00003,-0.00002zm-409.6709,-3.79688c-2.47705,-3.12988 -4.916,-6.36133 -7.24951,-9.60449l1.623,-1.168c2.31591,3.21777 4.73632,6.42481 7.19482,9.53223l-1.56831,1.24026zm424.09961,-15.49707l-1.6543,-1.12305c2.23047,-3.28417 4.415,-6.66406 6.49219,-10.04785l1.70508,1.04688c-2.09476,3.40925 -4.29593,6.81545 -6.543,10.12404l0.00003,-0.00002zm-438.15088,-4.0293c-2.1792,-3.34082 -4.312,-6.77832 -6.33984,-10.21972l1.72265,-1.01563c2.0127,3.415 4.1294,6.82715 6.292,10.1416l-1.67481,1.09375zm450.76611,-16.51074l-1.75,-0.96679c1.91993,-3.47461 3.78516,-7.043 5.5459,-10.60645l1.793,0.88672c-1.77355,3.58986 -3.65436,7.18557 -5.58893,10.68654l0.00003,-0.00002zm-462.9707,-4.20508c-1.86523,-3.52539 -3.67383,-7.14257 -5.37549,-10.75l1.8086,-0.85351c1.689,3.58008 3.4834,7.16992 5.33447,10.668l-1.76758,0.93551zm473.65137,-17.416l-1.832,-0.80274c1.59375,-3.63964 3.124,-7.36718 4.54883,-11.07812l1.86718,0.7168c-1.4356,3.74024 -2.97857,7.4961 -4.58404,11.16407l0.00003,-0.00001zm-483.90235,-4.31543c-1.5332,-3.67969 -3.00146,-7.44434 -4.36376,-11.19043l1.87988,-0.68359c1.35156,3.71777 2.80859,7.45312 4.32959,11.10449l-1.84571,0.76953zm492.55079,-18.21582l-1.89844,-0.62891c1.248,-3.76074 2.42578,-7.60449 3.5,-11.42578l1.92578,0.541c-1.08304,3.85061 -2.27054,7.72464 -3.52737,11.5137l0.00003,-0.00001zm-500.76712,-4.3828c-1.18995,-3.81153 -2.30811,-7.70508 -3.32325,-11.57422l1.93457,-0.50781c1.00733,3.83984 2.11719,7.7041 3.29786,11.48632l-1.90918,0.59571zm507.28564,-18.79493l-1.94824,-0.45312c0.89551,-3.85449 1.71387,-7.791 2.43359,-11.69824l1.9668,0.36133c-0.72461,3.93847 -1.54981,7.90429 -2.45215,11.79003zm-513.394,-4.49414c-0.834,-3.90625 -1.58887,-7.88574 -2.24317,-11.83007l1.97266,-0.32813c0.6499,3.915 1.39893,7.86426 2.22656,11.74024l-1.95605,0.41796zm517.75244,-19.18359l-1.98242,-0.27148c0.53808,-3.917 0.99218,-7.91114 1.35058,-11.87207l1.99219,0.17968c-0.36137,3.99219 -0.81938,8.0166 -1.36039,11.96387l0.00004,0zm-521.69385,-4.56641c-0.47168,-3.959 -0.85889,-7.99121 -1.15137,-11.98437l1.99512,-0.14649c0.28955,3.96387 0.67432,7.96485 1.14258,11.89454l-1.98633,0.23632zm523.86865,-19.40918l-1.998,-0.08984c0.17773,-3.96289 0.26855,-7.98242 0.26855,-11.94629l2,0c-0.00007,3.99414 -0.0909,8.04395 -0.27059,12.03613l0.00004,0zm-525.626,-4.60156c-0.06836,-2.45215 -0.103,-4.9541 -0.10352,-7.43457q0,-2.30859 0.03955,-4.6084l2,0.03516q-0.03954,2.28222 -0.03955,4.57324c0.00049,2.46192 0.03516,4.94531 0.10254,7.37988l-1.99902,0.05469zm523.88183,-10.22461c-0.041,-3.96533 -0.17383,-7.98437 -0.39355,-11.94629l1.99609,-0.11132c0.22168,3.99218 0.35547,8.0415 0.39746,12.03613l-2,0.02148zm-521.4712,-13.72318l-1.99609,-0.125c0.24951,-3.9961 0.59424,-8.03223 1.02344,-11.99658l1.98828,0.21533c-0.42627,3.93461 -0.76758,7.93998 -1.01563,11.90625zm520.14209,-10.13477c-0.39941,-3.94287 -0.89648,-7.93213 -1.47656,-11.85791l1.97851,-0.292c0.584,3.95557 1.085,7.9751 1.48829,11.94775l-1.99024,0.20216zm-517.56933,-13.61812l-1.97657,-0.30567c0.6128,-3.95654 1.32471,-7.94433 2.11621,-11.854l1.96,0.39648c-0.78519,3.87989 -1.49173,7.83741 -2.09964,11.76319zm514.07421,-10.01563c-0.76269,-3.90136 -1.623,-7.82861 -2.55859,-11.67236l1.94336,-0.47266c0.94238,3.873 1.80957,7.83057 2.57812,11.76123l-1.96289,0.38379zm-509.33691,-13.40136l-1.93994,-0.48633c0.97119,-3.87354 2.04687,-7.7793 3.19726,-11.60938l1.915,0.5752c-1.14107,3.80078 -2.20845,7.67676 -3.17232,11.52051zm503.68457,-9.81348c-1.11523,-3.80811 -2.334,-7.63867 -3.62207,-11.38672l1.89063,-0.65039c1.29882,3.77686 2.52734,7.6377 3.65136,11.47461l-1.91992,0.5625zm-496.79978,-13.1001l-1.88672,-0.66308c1.3291,-3.78077 2.76416,-7.57959 4.26513,-11.291l1.8545,0.75c-1.48977,3.6826 -2.91409,7.45262 -4.23291,11.20408zm489.0332,-9.49463c-1.459,-3.68066 -3.02149,-7.37451 -4.64453,-10.97949l1.82422,-0.82129c1.63574,3.63281 3.21,7.355 4.67968,11.06348l-1.85937,0.7373zm-480.05666,-12.70263l-1.81738,-0.835c1.67041,-3.6377 3.44824,-7.28565 5.28418,-10.84229l1.77734,0.917c-1.82227,3.52982 -3.58643,7.14993 -5.24414,10.76029zm470.26855,-9.03565c-1.79,-3.53076 -3.68652,-7.06885 -5.63672,-10.51465l1.74024,-0.98535c1.96582,3.47266 3.876,7.0376 5.67969,10.5957l-1.78321,0.9043zm-459.2915,-12.22949l-1.7334,-0.99805c1.99512,-3.46435 4.09912,-6.93213 6.25391,-10.30615l1.68554,1.07617c-2.13818,3.34863 -4.22656,6.79004 -6.20605,10.22803zm447.5415,-8.53516c-2.11328,-3.36425 -4.32617,-6.71582 -6.57715,-9.96191l1.64258,-1.13965c2.26856,3.271 4.499,6.648 6.62793,10.03809l-1.69336,1.06347zm-434.66845,-11.62353l-1.63477,-1.15235c2.30566,-3.27 4.71631,-6.52929 7.1665,-9.6875l1.58008,1.22559c-2.43115,3.13481 -4.82422,6.36914 -7.11181,9.61426zm421.064,-7.99219c-2.41016,-3.15674 -4.91992,-6.29492 -7.46191,-9.32715l1.5332,-1.28467c2.56055,3.05567 5.08984,6.21729 7.51855,9.398l-1.58984,1.21382zm-406.41064,-10.89893l-1.52246,-1.29687c2.5874,-3.03906 5.28418,-6.064 8.01513,-8.99072l1.46192,1.36425c-2.71,2.90479 -5.38627,5.90723 -7.95459,8.92334zm391.06982,-7.4082c-2.68652,-2.92431 -5.47363,-5.82275 -8.28223,-8.61377l1.41016,-1.41894c2.83008,2.813 5.6377,5.73291 8.34473,8.6792l-1.47266,1.35351zm-374.76514,-10.064l-1.39843,-1.42969c2.85986,-2.79785 5.81933,-5.564 8.79541,-8.22119l1.332,1.49219c-2.95366,2.63675 -5.89066,5.38187 -8.72902,8.15873l0.00004,-0.00004zm357.81787,-6.77979c-2.94433,-2.67041 -5.98437,-5.3042 -9.03515,-7.82812l1.27539,-1.541c3.07324,2.543 6.13672,5.19678 9.10351,7.8877l-1.34375,1.48142zm-339.99955,-9.13179l-1.26269,-1.55079c3.09326,-2.519 6.29,-5.00341 9.50195,-7.38427l1.19141,1.60644c-3.18799,2.36328 -6.36084,4.82862 -9.43067,7.32862zm321.58155,-6.10694c-3.17676,-2.39209 -6.44532,-4.73926 -9.71485,-6.97607l1.12891,-1.65039c3.29492,2.25342 6.58789,4.61816 9.78906,7.02881l-1.20312,1.59765zm-302.39942,-8.11035l-1.11621,-1.65918c3.31055,-2.22754 6.71875,-4.40869 10.13037,-6.48437l1.03906,1.709c-3.38525,2.05955 -6.76757,4.22459 -10.05322,6.43455zm282.65918,-5.39111c-3.37988,-2.0918 -6.85058,-4.13086 -10.31543,-6.06153l0.97266,-1.74707c3.49219,1.94532 6.98926,4.00049 10.39551,6.10743l-1.05274,1.70117zm-262.27148,-7.01026l-0.96,-1.75488c3.50244,-1.9165 7.09375,-3.77588 10.67382,-5.52734l0.87891,1.79687c-3.55269,1.73779 -7.11666,3.58301 -10.59273,5.48535zm241.37011,-4.63379c-3.55859,-1.77294 -7.2041,-3.48584 -10.835,-5.09082l0.8086,-1.8291c3.65918,1.61719 7.333,3.34326 10.91894,5.12989l-0.89254,1.79003zm-219.94824,-5.84423l-0.79492,-1.835c3.66016,-1.58643 7.4043,-3.10792 11.12793,-4.52247l0.71,1.87012c-3.69535,1.40336 -7.41071,2.91313 -11.04301,4.48735zm198.05176,-3.83448c-3.70312,-1.436 -7.49316,-2.80615 -11.26562,-4.07177l0.63671,-1.89649c3.80079,1.27588 7.62012,2.65625 11.35157,4.104l-0.72266,1.86426zm-175.74316,-4.63672l-0.62305,-1.90039c3.80078,-1.24609 7.67871,-2.41943 11.52539,-3.48632l0.53467,1.92675c-3.81738,1.05909 -7.66553,2.22315 -11.43701,3.45996zm153.06347,-2.97367c-3.81445,-1.0874 -7.70508,-2.1001 -11.56347,-3.00976l0.459,-1.94629c3.88867,0.9165 7.80859,1.937 11.65332,3.03222l-0.54885,1.92383zm-130.0415,-3.41553l-0.44531,-1.9497c3.89648,-0.89014 7.86572,-1.70117 11.79687,-2.41016l0.35547,1.96777c-3.90186,0.70415 -7.8403,1.50883 -11.70703,2.39213l0,-0.00004zm106.7876,-2.06689c-3.89453,-0.731 -7.86133,-1.38135 -11.791,-1.93311l0.27734,-1.98046c3.96,0.55615 7.958,1.21142 11.88282,1.94775l-0.36916,1.96582zm-83.27539,-2.17627l-0.26465,-1.98242c3.959,-0.52832 7.98535,-0.97266 11.96679,-1.31934l0.17383,1.99219c-3.95117,0.34477 -7.94629,0.7852 -11.87597,1.30961l0,-0.00004zm59.61621,-1.14746c-3.93946,-0.37109 -7.94922,-0.65723 -11.91895,-0.84912l0.09766,-1.998c3.999,0.19385 8.03906,0.48194 12.00879,0.856l-0.1875,1.99112zm-35.81446,-0.9292l-0.084,-1.998c3.67578,-0.15332 7.42187,-0.23144 11.13574,-0.23242l0.90527,0.00147l-0.00585,2l-0.89942,-0.00147c-3.68553,0.00097 -7.40428,0.0786 -11.05174,0.23046l0,-0.00004z" fill="#f2f2f2" id="svg_18" transform="translate(-114 -81.49288)"/>
  <path d="m569.914,467.49849c9.36612,-11.33011 19.94116,-21.9814 32.84781,-29.018s28.45465,-10.15923 42.54666,-5.97461c10.51951,3.12376 19.486,9.99583 27.7843,17.17615c17.002,14.71151 32.67943,31.55515 52.7333,41.72075s46.47774,12.063 63.511,-2.6124c13.48079,-11.6147 19.22836,-31.73232 35.32688,-39.31325c15.86939,-7.473 34.26972,0.55161 50.37328,7.50568a421.23122,421.23122 0 0 0 67.648,22.62985c15.65965,3.799 31.791,6.71109 47.83225,5.18329s32.14167,-7.9497 42.60416,-20.205" fill="#f2f2f2" id="svg_19" transform="translate(-114 -81.49288)"/>
  <path d="m493.44578,411.2165l40.37653,0a141.21841,141.21841 0 0 0 0,-48.14125l-40.37653,0a86.62233,86.62233 0 0 1 0,48.14125z" fill="#4949e7" id="svg_20" transform="translate(-114 -81.49288)"/>
  <path d="m166.44578,433.2165l40.37653,0a141.21841,141.21841 0 0 0 0,-48.14125l-40.37653,0a86.62233,86.62233 0 0 1 0,48.14125z" fill="#4949e7" id="svg_21" transform="translate(-114 -81.49288)"/>
  <path d="m869.44578,287.2165l40.37653,0a141.21841,141.21841 0 0 0 0,-48.14125l-40.37653,0a86.62233,86.62233 0 0 1 0,48.14125z" fill="#4949e7" id="svg_22" transform="translate(-114 -81.49288)"/>
  <polygon fill="#ffb9b9" id="svg_23" points="206.688 657.431 198.225 684.361 224.385 686.669 222.077 657.431 206.688 657.431"/>
  <polygon fill="#ffb9b9" id="svg_24" points="333.644 678.205 333.644 715.138 363.651 715.138 355.188 678.205 333.644 678.205"/>
  <path d="m340.69342,491.16841l-12.31082,116.95282s-15.38853,103.10315 -12.31082,119.26111s-0.76943,18.46623 -0.76943,18.46623l23.08279,0s-0.76942,-10.00254 3.84714,-14.6191s2.30828,-18.46624 2.30828,-18.46624l58.47644,-178.50694l33.08534,100.02544s5.386,110.028 6.15541,111.56684s3.0777,22.31337 3.0777,22.31337l28.46875,0s-3.84713,-12.31082 1.53886,-16.158s10.00254,-0.76942 5.386,-7.69426s-6.15541,-15.38853 -4.61656,-19.23566s1.53886,-19.23567 1.53886,-19.23567s-2.30828,-207.74514 -15.38853,-214.67s-121.56941,0.00006 -121.56941,0.00006z" fill="#2f2e41" id="svg_25" transform="translate(-114 -81.49288)"/>
  <path d="m455.775,777.05655s-13.15652,-1.97348 -13.15652,-1.31565s-15.78783,43.41653 0,42.7587s75.65,-9.20956 71.70305,-24.99739s-23.68174,-11.183 -23.68174,-11.183l-17.76131,-9.86739l-17.10348,4.60473z" fill="#2f2e41" id="svg_26" transform="translate(-114 -81.49288)"/>
  <path d="m326.24093,763.43241s13.15653,-1.97348 13.15653,-1.31566s15.78782,43.41653 0,42.75871s-75.65,-9.20957 -71.70306,-24.9974s23.68174,-11.183 23.68174,-11.183l17.76131,-9.8674l17.10348,4.60475z" fill="#2f2e41" id="svg_27" transform="translate(-114 -81.49288)"/>
  <path d="m389.15532,585.029l38.856,0a135.90047,135.90047 0 0 0 0,-46.32829l-38.856,0a83.36036,83.36036 0 0 1 0,46.32829z" fill="#d0cde1" id="svg_28" transform="translate(-114 -81.49288)"/>
  <path d="m377.84,586.64548l38.856,0a135.90047,135.90047 0 0 0 0,-46.32829l-38.856,0a83.36036,83.36036 0 0 1 0,46.32829z" fill="#4949e7" id="svg_29" transform="translate(-114 -81.49288)"/>
  <circle cx="289.9948" cy="159.5965" fill="#ae6e79" id="svg_30" r="30.27939"/>
  <path d="m265.93417,155.764788s-5.386,53.85986 -12.31082,57.707s53.09043,7.69426 53.09043,7.69426s-14.61911,-49.24329 -10.00255,-53.85985s-30.77706,-11.54141 -30.77706,-11.54141z" fill="#ae6e79" id="svg_31"/>
  <path d="m444.566,293.42581s-21.54394,-20.77452 -46.16559,-16.92739s-42.31846,8.46369 -42.31846,8.46369s-37.70189,20.00509 -38.47132,36.16305s13.84968,76.94265 13.84968,76.94265s6.92483,99.256 7.69426,99.256s130.03307,-1.53881 130.03307,-1.53881l-23.85222,-129.26368l-0.76942,-73.09551z" fill="#575a89" id="svg_32" transform="translate(-114 -81.49288)"/>
  <path d="m325.53392,397.080018c-4.98587,1.3465 -13.5803,-0.51555 -22.55194,-3.45472c-16.00392,-5.25519 -33.20067,-13.9574 -33.20067,-13.9574s-55.39871,-22.31337 -71.55667,-33.85478s-5.386,-57.707 -5.386,-57.707l24.62165,7.69426l-1.53886,28.46878l60.78469,39.24075a137.1283,137.1283 0 0 1 28.138,5.65527c10.23341,3.36239 20.17434,8.60218 23.7675,16.6504a15.57442,15.57442 0 0 1 1.18495,3.85483c0.73092,4.24723 -0.99257,6.51705 -4.26265,7.40961z" fill="#ae6e79" id="svg_33"/>
  <path d="m442.61162,467.30849c-1.06942,3.98562 -2.10822,7.77889 -3.0777,11.26441c-4.98587,1.3465 -13.5803,-0.51555 -22.55194,-3.45472l1.86214,-24.46009c10.23341,3.36239 20.17434,8.60218 23.7675,16.6504z" id="svg_34" opacity="0.15" transform="translate(-114 -81.49288)"/>
  <path d="m317.48575,273.487038l-4.61656,40.77961l-7.65581,100.61967s-42.35691,50.95734 -18.50469,52.49619s36.93247,-50.01272 36.93247,-50.01272s23.85222,-81.5592 23.08279,-98.48658s0,-45.39617 0,-45.39617l-29.2382,0z" fill="#ae6e79" id="svg_35"/>
  <path d="m438.18959,237.70987a7.89874,7.89874 0 0 0 2.17735,-1.31169c1.653,-1.60421 1.37431,-4.32264 0.6565,-6.51142s-1.76664,-4.45167 -1.25265,-6.69706c0.23951,-1.04632 0.80972,-2.0033 0.97261,-3.06424c0.38733,-2.52279 -1.62537,-4.82212 -3.85311,-6.0678s-4.79009,-1.8593 -6.89545,-3.3022c-3.22878,-2.21282 -5.01158,-6.11544 -8.28954,-8.25473c-3.20561,-2.09207 -7.27871,-2.15692 -11.10659,-2.15265l-11.42777,0.01273c-5.97215,0.00666 -12.53483,0.22807 -16.9796,4.21689c-1.35192,1.21323 -2.42269,2.71562 -3.79178,3.90944c-2.75738,2.40439 -6.47891,3.36408 -9.541,5.36607a16.54716,16.54716 0 0 0 -7.34719,13.9347c0.10813,5.07083 2.57974,9.99679 1.93755,15.028c-0.43079,3.375 -2.25265,6.61792 -1.774,9.9865c0.56759,3.99494 4.23214,6.85671 7.99018,8.326s7.85506,1.99689 11.51153,3.70334c2.98462,1.3929 6.1026,3.61314 9.24873,2.63846c2.66156,-0.82455 4.122,-3.63548 5.07559,-6.25359a51.03652,51.03652 0 0 0 2.44635,-9.44241c0.38291,-2.40743 0.63683,-4.95893 2.05063,-6.94475a7.99622,7.99622 0 0 1 7.14982,-3.08376c6.17064,0.54238 9.64424,11.05166 15.31882,8.56635c2.8138,-1.23237 4.97576,-4.92079 7.22955,-6.93195a36.29747,36.29747 0 0 1 8.49347,-5.67023z" fill="#2f2e41" id="svg_36" transform="translate(-114 -81.49288)"/>
  <path d="m326.84375,314.20032s-15.38853,5.386 -21.54394,26.92993s-3.84714,36.163 -3.84714,36.163l32.31592,5.386l-6.92484,-68.47893z" fill="#575a89" id="svg_37" transform="translate(-114 -81.49288)"/>
  <path d="m429.17747,291.887s27.69935,-6.15541 31.54648,20.00509a418.74285,418.74285 0 0 1 3.84714,53.09043s-26.1605,-12.31083 -37.7019,0l2.30828,-73.09552z" fill="#575a89" id="svg_38" transform="translate(-114 -81.49288)"/>
  <rect fill="#f2f2f2" height="3" id="svg_39" width="27" x="387" y="297"/>
  <rect fill="#f2f2f2" height="3" id="svg_40" width="27" x="60" y="322"/>
  <rect fill="#f2f2f2" height="3" id="svg_41" width="27" x="387" y="304"/>
  <rect fill="#f2f2f2" height="3" id="svg_42" width="27" x="764" y="169"/>
  <rect fill="#f2f2f2" height="3" id="svg_43" width="27" x="764" y="183"/>
  <rect fill="#f2f2f2" height="3" id="svg_44" width="27" x="764" y="176"/>
 </g>
</svg>